<?xml version="1.0" encoding="utf-8"?>
<svg viewBox="0.564 4.367 121.121 99.572" xmlns="http://www.w3.org/2000/svg">
    <g id="Layer_1" style="" transform="matrix(0.482093, 0, 0, 0.445238, -0.582981, -4.448341)">
        <g/>
        <g>
            <path fill="#72C2E9"
                  d="M251.12,71.84v118.71c0,5.52-4.48,10-10,10h-78.74l44.24-51.96l-32.44-44.21H81.82l-32.44,44.21 l44.23,51.96H14.88c-5.52,0-10-4.48-10-10V71.84c0-5.52,4.48-10.006,10-10.006h226.24C246.64,61.834,251.12,66.32,251.12,71.84z"/>
            <path fill="#4BA5C8"
                  d="M212.71,153.77l-39.83,46.78h-10.5l44.24-51.96l-32.44-44.21H81.82l-32.44,44.21l44.23,51.96H83.1 l-39.81-46.78c-2.41-2.82-2.55-6.93-0.36-9.92l32.44-44.2c1.51-2.06,3.91-3.27,6.45-3.27h92.36c2.54,0,4.94,1.21,6.45,3.27 l32.44,44.2C215.26,146.84,215.12,150.95,212.71,153.77z"/>
            <path fill="#FC5D3D"
                  d="M171.825,33.163v28.671h-14.123V36.422H98.298v25.412H84.176V33.163c0-6,4.864-10.864,10.864-10.864 h65.921C166.961,22.299,171.825,27.163,171.825,33.163z"/>
            <path fill="#7D7B79"
                  d="M55.57,47.799H35.32c-2.761,0-5,2.239-5,5v9.035h30.25v-9.035C60.57,50.038,58.331,47.799,55.57,47.799z"/>
            <path fill="#7D7B79"
                  d="M220.68,47.799h-20.25c-2.761,0-5,2.239-5,5v9.035h30.25v-9.035 C225.68,50.038,223.441,47.799,220.68,47.799z"/>
            <path fill="#F0C020"
                  d="M38.603,165.781c-3.683-1.217-7.487-2.281-9.623-11.48c-1.967,8.473-5.118,9.992-9.623,11.48 c7.347,2.428,8.455,6.447,9.623,11.48C30.993,168.585,34.323,167.195,38.603,165.781z"/>
            <path d="M26.57,177.821c-1.067-4.599-1.771-7.637-7.989-9.691c-2.259-0.746-2.254-3.952,0-4.697 c3.743-1.237,6.216-2.054,7.989-9.692c0.589-2.538,4.228-2.545,4.818,0c1.813,7.811,4.522,8.549,7.989,9.691 c2.259,0.746,2.254,3.952,0,4.697c-3.609,1.192-6.218,2.054-7.989,9.691C30.797,180.371,27.163,180.371,26.57,177.821z M25.157,165.838c1.78,1.222,2.996,2.618,3.872,4.094c1.061-1.875,2.29-3.166,3.659-4.128c-1.312-0.939-2.583-2.269-3.699-4.279 C27.886,163.509,26.597,164.85,25.157,165.838z"/>
            <path fill="#F0C020"
                  d="M219.877,103.844c-3.683-1.217-7.487-2.281-9.623-11.48c-1.967,8.473-5.118,9.992-9.623,11.48 c7.347,2.428,8.455,6.447,9.623,11.48C212.267,106.648,215.597,105.258,219.877,103.844z"/>
            <path d="M207.844,115.884c-1.067-4.599-1.771-7.637-7.989-9.691c-2.259-0.746-2.254-3.952,0-4.697 c3.743-1.237,6.216-2.054,7.989-9.692c0.589-2.538,4.228-2.545,4.818,0c1.813,7.811,4.522,8.549,7.989,9.691 c2.259,0.746,2.254,3.952,0,4.697c-3.609,1.192-6.218,2.054-7.989,9.691C212.071,118.434,208.437,118.434,207.844,115.884z M206.431,103.901c1.78,1.222,2.996,2.618,3.872,4.094c1.061-1.875,2.29-3.166,3.659-4.128c-1.313-0.939-2.583-2.269-3.699-4.279 C209.16,101.572,207.871,102.913,206.431,103.901z"/>
            <polygon fill="#EFC01F"
                     points="206.62,148.59 162.38,200.55 127.992,240.942 93.61,200.55 49.38,148.59 81.82,104.38 &#10;&#9;&#9;&#9;174.18,104.38 &#9;&#9;"/>
            <g>
                <g>
                    <path fill="#C5E5FE"
                          d="M64,192.051H18.33c-1.381,0-2.5-1.119-2.5-2.5s1.119-2.5,2.5-2.5H64c1.381,0,2.5,1.119,2.5,2.5 S65.381,192.051,64,192.051z"/>
                </g>
                <g>
                    <path fill="#C5E5FE"
                          d="M240.12,192.051h-25.288c-1.381,0-2.5-1.119-2.5-2.5s1.119-2.5,2.5-2.5h22.788V72.839 c0-1.381,1.119-2.5,2.5-2.5s2.5,1.119,2.5,2.5v116.711C242.62,190.932,241.501,192.051,240.12,192.051z M204.832,192.051 h-12.228c-1.381,0-2.5-1.119-2.5-2.5s1.119-2.5,2.5-2.5h12.228c1.381,0,2.5,1.119,2.5,2.5S206.213,192.051,204.832,192.051z"/>
                </g>
                <g>
                    <path fill="#F8E5B0"
                          d="M150.118,197.98c-1.051-0.895-1.178-2.473-0.282-3.524l1.821-2.139c0.895-1.053,2.473-1.178,3.524-0.283 c1.051,0.895,1.178,2.473,0.282,3.524l-1.821,2.139C152.748,198.749,151.169,198.875,150.118,197.98z M158.423,188.227 c-1.051-0.895-1.178-2.473-0.282-3.524l31.278-36.737L167.34,117.88H87.395c-1.381,0-2.5-1.119-2.5-2.5s1.119-2.5,2.5-2.5 h81.212c0.796,0,1.545,0.379,2.016,1.021l23.998,32.701c0.686,0.934,0.64,2.217-0.112,3.1l-32.561,38.242 C161.053,188.996,159.474,189.121,158.423,188.227z"/>
                </g>
                <g>
                    <g>
                        <g>
                            <g>
                                <g>
                                    <path fill="#C5E5FE"
                                          d="M64,192.051H18.33c-1.381,0-2.5-1.119-2.5-2.5s1.119-2.5,2.5-2.5H64c1.381,0,2.5,1.119,2.5,2.5 S65.381,192.051,64,192.051z"/>
                                </g>
                                <g>
                                    <path fill="#C5E5FE"
                                          d="M240.12,192.051h-25.288c-1.381,0-2.5-1.119-2.5-2.5s1.119-2.5,2.5-2.5h22.788V72.839 c0-1.381,1.119-2.5,2.5-2.5s2.5,1.119,2.5,2.5v116.711C242.62,190.932,241.501,192.051,240.12,192.051z M204.832,192.051 h-12.228c-1.381,0-2.5-1.119-2.5-2.5s1.119-2.5,2.5-2.5h12.228c1.381,0,2.5,1.119,2.5,2.5S206.213,192.051,204.832,192.051z "/>
                                </g>
                            </g>
                        </g>
                    </g>
                    <g>
                        <g>
                            <path fill="#F8E5B0"
                                  d="M150.118,197.98c-1.051-0.895-1.178-2.473-0.282-3.524l1.821-2.139 c0.895-1.053,2.473-1.178,3.524-0.283c1.051,0.895,1.178,2.473,0.282,3.524l-1.821,2.139 C152.748,198.749,151.169,198.875,150.118,197.98z M158.423,188.227c-1.051-0.895-1.178-2.473-0.282-3.524l31.278-36.737 L167.34,117.88H87.395c-1.381,0-2.5-1.119-2.5-2.5s1.119-2.5,2.5-2.5h81.212c0.796,0,1.545,0.379,2.016,1.021l23.998,32.701 c0.686,0.934,0.64,2.217-0.112,3.1l-32.561,38.242C161.053,188.996,159.474,189.121,158.423,188.227z"/>
                        </g>
                    </g>
                </g>
                <path d="M14.88,203.05h14.74c1.38,0,2.5-1.12,2.5-2.5s-1.12-2.5-2.5-2.5H14.88c-4.13-0.01-7.49-3.37-7.5-7.5V71.84 c0.01-4.13,3.37-7.5,7.5-7.51c10.412,0,225.368,0,226.24,0c4.13,0.01,7.489,3.38,7.5,7.51v118.71c-0.011,4.13-3.37,7.49-7.5,7.5 h-73.331l19.341-22.72c0.873-1.016,0.797-2.611-0.28-3.52c-1.01-0.86-2.66-0.73-3.53,0.28l-48.658,57.163l26.918-78.165h39.625 l-4.915,5.782c-0.865,0.982-0.81,2.602,0.279,3.52c1.011,0.86,2.671,0.72,3.53-0.28c0.211-0.248,8.301-9.751,8.499-10.01 c0.717-0.938,0.66-2.153,0.031-2.99l-32.44-44.21c-0.47-0.64-1.22-1.02-2.01-1.02H81.82c-0.79,0-1.54,0.38-2.01,1.02 l-32.45,44.21c-0.658,0.906-0.635,2.215,0.12,3.1l40.722,47.84H49.62c-1.38,0-2.5,1.12-2.5,2.5s1.12,2.5,2.5,2.5h42.838 c0.98,1.152,33.064,38.847,33.665,39.542c1.033,1.168,2.809,1.099,3.776-0.032l33.633-39.51h77.587c6.89,0,12.5-5.61,12.5-12.5 V71.84c0-6.89-5.61-12.5-12.5-12.51h-12.94V52.8c0-4.13-3.37-7.5-7.5-7.5h-20.25c-4.13,0-7.5,3.37-7.5,7.5v6.53h-18.61V33.16 c0-7.36-5.989-13.36-13.359-13.36h-8.811c-1.38,0-2.5,1.12-2.5,2.5s1.12,2.5,2.5,2.5c3.795,0,5.044,0,8.811,0 c4.6,0.01,8.35,3.76,8.359,8.36v26.17H160.2V36.42c0-1.362-1.092-2.5-2.5-2.5H98.3c-1.348,0-2.5,1.085-2.5,2.5v22.91h-9.13 l0.01-26.17c0-4.6,3.76-8.35,8.36-8.36h37.109c1.381,0,2.5-1.12,2.5-2.5s-1.119-2.5-2.5-2.5H95.04c-7.37,0-13.36,6-13.37,13.36 v26.17h-18.6V52.8c0-4.13-3.37-7.5-7.5-7.5H35.32c-4.13,0-7.5,3.37-7.5,7.5v6.53H14.88c-6.89,0.01-12.5,5.62-12.5,12.51v118.71 C2.38,197.44,7.99,203.05,14.88,203.05z M94.421,151.087l26.908,78.177l-66.541-78.177H94.421z M144.809,106.88l11.637,39.208 H99.554l11.637-39.208H144.809z M127.992,233.262l-28.284-82.174h56.582L127.992,233.262z M201.681,146.087h-40.02 l-11.637-39.208h22.886L201.681,146.087z M83.09,106.88h22.885l-11.637,39.208h-40.03L83.09,106.88z M197.93,52.8 c0-1.38,1.12-2.5,2.5-2.5h20.25c1.38,0,2.5,1.12,2.5,2.5v6.53h-25.25V52.8z M100.8,38.92h54.4v20.41h-54.4V38.92z M32.82,52.8 c0-1.38,1.12-2.5,2.5-2.5h20.25c1.38,0,2.5,1.12,2.5,2.5v6.53H32.82V52.8z"/>
                <circle cx="39.62" cy="200.55" r="2.5"/>
                <circle cx="142.149" cy="22.3" r="2.5"/>
                <path d="M189.81,164.48c-0.899,1.05-0.77,2.63,0.28,3.52c1.044,0.903,2.641,0.767,3.52-0.28c0.861-0.996,0.816-2.596-0.279-3.52 C192.319,163.33,190.67,163.47,189.81,164.48z"/>
            </g>
        </g>
    </g>
</svg>